<svg width="160" height="180" viewBox="0 0 160 180" fill="none" xmlns="http://www.w3.org/2000/svg">
<rect x="129.468" y="139.011" width="96.936" height="98.4793" rx="48.468" transform="rotate(-180 129.468 139.011)" fill="#FAEDD4" stroke="#FAEDD4" stroke-width="1.06415"/>
<path d="M71.8314 90.1404C72.7015 90.9159 73.5186 91.6344 74.3256 92.362C79.8507 97.3528 85.3718 102.349 90.903 107.336C92.084 108.4 92.5861 109.617 91.9905 111.079C91.1266 113.2 88.2095 113.904 86.2804 112.47C86.006 112.268 85.7621 112.033 85.51 111.807C78.5152 105.486 71.5204 99.1647 64.5256 92.8416C62.4867 90.9986 62.4908 89.2217 64.5419 87.3676C71.5895 80.9949 78.6433 74.6296 85.6807 68.2497C86.7622 67.2684 87.9717 66.752 89.5125 67.1177C92.0921 67.7315 93.0902 70.5172 91.403 72.386C91.1794 72.6341 90.9212 72.8582 90.6712 73.0843C84.5912 78.5804 78.5111 84.0747 72.4311 89.569C72.2542 89.7288 72.0835 89.896 71.8294 90.1386L71.8314 90.1404Z" fill="#16555A"/>
</svg>
