<svg width="160" height="180" viewBox="0 0 160 180" fill="none" xmlns="http://www.w3.org/2000/svg">
<rect x="129.468" y="139.011" width="96.936" height="98.4793" rx="48.468" transform="rotate(-180 129.468 139.011)" fill="#FAEDD4" stroke="#FAEDD4" stroke-width="1.06415"/>
<path d="M77.5055 90.1338C76.8018 90.8085 76.1409 91.4336 75.4882 92.0667C71.0194 96.409 66.5539 100.756 62.0802 105.095C61.125 106.021 60.7189 107.079 61.2006 108.352C61.8994 110.197 64.2587 110.809 65.819 109.562C66.041 109.386 66.2382 109.182 66.4421 108.985C72.0996 103.485 77.7571 97.9855 83.4145 92.484C85.0636 90.8804 85.0603 89.3344 83.4014 87.7212C77.7012 82.1765 71.996 76.6383 66.304 71.0873C65.4293 70.2335 64.4511 69.7843 63.2048 70.1024C61.1184 70.6364 60.3111 73.0602 61.6758 74.6862C61.8566 74.902 62.0654 75.0971 62.2677 75.2937C67.1853 80.0757 72.1029 84.8561 77.0205 89.6365C77.1635 89.7756 77.3016 89.9211 77.5071 90.1322L77.5055 90.1338Z" fill="#16555A"/>
<path d="M84.5102 90.1338C85.2138 90.8085 85.8748 91.4336 86.5275 92.0667C90.9963 96.409 95.4617 100.756 99.9354 105.095C100.891 106.021 101.297 107.079 100.815 108.352C100.116 110.197 97.7569 110.809 96.1967 109.562C95.9747 109.386 95.7774 109.182 95.5735 108.985C89.9161 103.485 84.2586 97.9855 78.6011 92.484C76.9521 90.8804 76.9554 89.3344 78.6143 87.7212C84.3145 82.1765 90.0196 76.6383 95.7116 71.0873C96.5863 70.2335 97.5646 69.7843 98.8108 70.1024C100.897 70.6364 101.705 73.0602 100.34 74.6862C100.159 74.902 99.9502 75.0971 99.748 75.2937C94.8304 80.0757 89.9128 84.8561 84.9952 89.6365C84.8521 89.7756 84.714 89.9211 84.5085 90.1322L84.5102 90.1338Z" fill="#16555A"/>
</svg>
