<svg width="160" height="180" viewBox="0 0 160 180" fill="none" xmlns="http://www.w3.org/2000/svg">
<rect x="0.532074" y="-0.532074" width="96.936" height="98.4793" rx="48.468" transform="matrix(1 -8.74228e-08 -8.74228e-08 -1 30 138.479)" fill="#FAEDD4" stroke="#FAEDD4" stroke-width="1.06415"/>
<path d="M88.1686 90.1404C87.2986 90.9159 86.4814 91.6344 85.6744 92.362C80.1493 97.3528 74.6283 102.349 69.0971 107.336C67.916 108.4 67.4139 109.617 68.0095 111.079C68.8735 113.2 71.7905 113.904 73.7196 112.47C73.994 112.268 74.238 112.033 74.49 111.807C81.4848 105.486 88.4796 99.1647 95.4744 92.8416C97.5133 90.9986 97.5092 89.2217 95.4581 87.3676C88.4105 80.9949 81.3568 74.6296 74.3193 68.2497C73.2378 67.2684 72.0283 66.752 70.4875 67.1177C67.9079 67.7315 66.9098 70.5172 68.597 72.386C68.8206 72.6341 69.0788 72.8582 69.3288 73.0843C75.4089 78.5804 81.4889 84.0747 87.5689 89.569C87.7458 89.7288 87.9165 89.896 88.1706 90.1386L88.1686 90.1404Z" fill="#16555A"/>
</svg>
