<svg width="1920" height="1890" viewBox="0 0 1920 1890" fill="none" xmlns="http://www.w3.org/2000/svg">
<g id="Implanta&#195;&#167;&#195;&#163;o">
<g id="1">
<circle id="Ellipse 9" cx="1228.5" cy="357.5" r="31.9756" fill="#FAEDD4" stroke="#16555A" stroke-width="5.04878"/>
<path id="1_2" d="M1226.24 371.731V351.81L1220.08 355.443V348.993L1232.57 341.686V371.731H1226.24Z" fill="#16555A"/>
</g>
<g id="3">
<circle id="Ellipse 9_2" cx="895.5" cy="721.5" r="31.9756" fill="#FAEDD4" stroke="#16555A" stroke-width="5.04878"/>
<path id="3_2" d="M894.311 736.18C891.331 736.18 888.433 735.364 886.433 734.221V728.383C888.8 729.812 891.413 730.669 893.822 730.669C896.842 730.669 898.884 729.281 898.884 726.873C898.884 724.505 897.087 723.117 893.536 723.117H890.352V718.259H893.658C896.802 718.259 898.271 716.83 898.271 714.789C898.271 712.503 896.434 711.238 893.577 711.238C891.086 711.238 888.392 712.218 886.596 713.401V707.809C888.433 706.584 891.209 705.727 894.148 705.727C900.476 705.727 904.599 708.952 904.599 713.973C904.599 716.79 902.966 719.198 900.435 720.26V720.341C903.456 721.525 905.211 724.056 905.211 727.281C905.211 732.792 900.761 736.18 894.311 736.18Z" fill="#16555A"/>
</g>
<g id="2">
<circle id="Ellipse 9_3" cx="1237.5" cy="790.5" r="31.9756" fill="#FAEDD4" stroke="#16555A" stroke-width="5.04878"/>
<path id="2_2" d="M1247.75 804.731H1227.21V804.65L1235.7 793.015C1238.56 789.096 1240.07 786.851 1240.07 784.443C1240.07 781.748 1238.2 780.279 1235.46 780.279C1232.89 780.279 1230.32 781.544 1228.15 783.667V777.829C1229.99 776.115 1233.01 774.727 1236.48 774.727C1242.28 774.727 1246.4 778.36 1246.4 783.83C1246.4 787.708 1244.36 790.893 1241.26 794.893L1237.91 799.22L1237.95 799.302H1247.75V804.731Z" fill="#16555A"/>
</g>
<g id="4">
<circle id="Ellipse 9_4" cx="948.5" cy="937.5" r="31.9756" fill="#FAEDD4" stroke="#16555A" stroke-width="5.04878"/>
<path id="4_2" d="M949.66 951.731V944.547H935.78V943.281L949.66 922.176H955.783V939.566H961.172V944.547H955.783V951.731H949.66ZM949.66 935.076C949.66 933.524 949.7 931.769 949.741 930.218H949.66C948.843 931.606 947.782 933.28 946.802 934.79L943.74 939.485L943.781 939.566H949.66V935.076Z" fill="#16555A"/>
</g>
<g id="6">
<circle id="Ellipse 9_5" cx="1091.5" cy="1208.5" r="31.9756" fill="#FAEDD4" stroke="#16555A" stroke-width="5.04878"/>
<path id="6_2" d="M1091.54 1223.18C1085.46 1223.18 1080.68 1219.3 1080.68 1212.93C1080.68 1209.75 1081.83 1207.01 1084.28 1203.26L1090.85 1193.18H1097.79L1089.83 1204.89L1089.87 1204.93C1090.77 1204.48 1091.95 1204.2 1093.22 1204.2C1098.24 1204.2 1102.4 1207.99 1102.4 1213.34C1102.4 1219.06 1097.79 1223.18 1091.54 1223.18ZM1091.5 1217.96C1094.16 1217.96 1096.12 1216.16 1096.12 1213.46C1096.12 1210.81 1094.28 1209.01 1091.54 1209.01C1088.89 1209.01 1086.93 1210.77 1086.93 1213.42C1086.93 1215.95 1088.73 1217.96 1091.5 1217.96Z" fill="#16555A"/>
</g>
<g id="5">
<circle id="Ellipse 9_6" cx="424.5" cy="1257.5" r="31.9756" fill="#FAEDD4" stroke="#16555A" stroke-width="5.04878"/>
<path id="5_2" d="M433.332 1247.61H422.514L422.147 1252.91H422.596C429.25 1252.91 434.23 1256.18 434.23 1262.34C434.23 1268.34 429.576 1272.18 422.963 1272.18C419.942 1272.18 417.085 1271.4 415.125 1270.14V1264.18C417.411 1265.77 420.105 1266.67 422.555 1266.67C425.821 1266.67 427.903 1265.04 427.903 1262.38C427.903 1258.95 424.106 1257.81 419.942 1257.81C418.799 1257.81 417.248 1257.85 416.023 1258.06L417.207 1242.18H433.332V1247.61Z" fill="#16555A"/>
</g>
</g>
</svg>
