<svg width="2880" height="1890" viewBox="0 0 2880 1890" fill="none" xmlns="http://www.w3.org/2000/svg">
<g id="Frame 14940">
<g id="1">
<circle id="Ellipse 9" cx="239.041" cy="490.041" r="46.3798" fill="#FAEDD4" stroke="#16555A" stroke-width="7.32312"/>
<path id="1_2" d="M235.771 510.764V481.868L226.83 487.138V477.782L244.949 467.183V510.764H235.771Z" fill="#16555A"/>
</g>
<g id="2" opacity="0.5">
<circle id="Ellipse 9_2" cx="694.041" cy="579.041" r="46.3798" fill="#FAEDD4" stroke="#16555A" stroke-width="7.32312"/>
<path id="2_2" d="M708.907 599.764H679.123V599.645L691.439 582.77C695.584 577.085 697.775 573.829 697.775 570.335C697.775 566.427 695.051 564.295 691.084 564.295C687.353 564.295 683.623 566.131 680.485 569.21V560.743C683.149 558.256 687.531 556.243 692.564 556.243C700.972 556.243 706.953 561.512 706.953 569.447C706.953 575.072 703.992 579.691 699.492 585.493L694.636 591.77L694.696 591.888H708.907V599.764Z" fill="#16555A"/>
</g>
<g id="5" opacity="0.5">
<circle id="Ellipse 9_3" cx="1223.04" cy="630.041" r="46.3798" fill="#FAEDD4" stroke="#16555A" stroke-width="7.32312"/>
<path id="5_2" d="M1235.85 615.769H1220.16L1219.63 623.467H1220.28C1229.93 623.467 1237.16 628.204 1237.16 637.145C1237.16 645.849 1230.41 651.415 1220.81 651.415C1216.43 651.415 1212.29 650.29 1209.44 648.454V639.809C1212.76 642.119 1216.67 643.421 1220.22 643.421C1224.96 643.421 1227.98 641.053 1227.98 637.204C1227.98 632.23 1222.47 630.572 1216.43 630.572C1214.77 630.572 1212.52 630.631 1210.75 630.928L1212.46 607.894H1235.85V615.769Z" fill="#16555A"/>
</g>
<g id="3" opacity="0.5">
<circle id="Ellipse 9_4" cx="751.041" cy="462.041" r="46.3798" fill="#FAEDD4" stroke="#16555A" stroke-width="7.32312"/>
<path id="3_2" d="M749.319 483.415C744.996 483.415 740.792 482.231 737.891 480.573V472.105C741.325 474.178 745.115 475.421 748.608 475.421C752.99 475.421 755.951 473.408 755.951 469.915C755.951 466.48 753.345 464.467 748.194 464.467H743.575V457.421H748.371C752.931 457.421 755.062 455.348 755.062 452.388C755.062 449.072 752.398 447.236 748.253 447.236C744.641 447.236 740.733 448.657 738.128 450.374V442.262C740.792 440.486 744.819 439.243 749.082 439.243C758.26 439.243 764.24 443.92 764.24 451.203C764.24 455.289 761.872 458.783 758.201 460.322V460.441C762.582 462.158 765.129 465.829 765.129 470.507C765.129 478.5 758.674 483.415 749.319 483.415Z" fill="#16555A"/>
</g>
<g id="6">
<circle id="Ellipse 9_5" cx="632.041" cy="950.041" r="46.3798" fill="#FAEDD4" stroke="#16555A" stroke-width="7.32312"/>
<path id="6_2" d="M632.105 971.415C623.283 971.415 616.355 965.79 616.355 956.553C616.355 951.934 618.013 947.967 621.565 942.519L631.099 927.894H641.165L629.618 944.888L629.677 944.947C630.98 944.296 632.697 943.881 634.533 943.881C641.816 943.881 647.856 949.388 647.856 957.145C647.856 965.435 641.165 971.415 632.105 971.415ZM632.046 963.836C635.895 963.836 638.737 961.23 638.737 957.322C638.737 953.474 636.072 950.868 632.105 950.868C628.256 950.868 625.414 953.414 625.414 957.263C625.414 960.934 628.02 963.836 632.046 963.836Z" fill="#16555A"/>
</g>
<g id="7">
<circle id="Ellipse 9_6" cx="2655.04" cy="400.041" r="46.3798" fill="#FAEDD4" stroke="#16555A" stroke-width="7.32312"/>
<path id="7_2" d="M2643.84 420.764L2658.77 385.769H2640.47V377.894H2671.26V378.012L2653.32 420.764H2643.84Z" fill="#16555A"/>
</g>
<g id="8" opacity="0.5">
<circle id="Ellipse 9_7" cx="1867.04" cy="190.041" r="46.3798" fill="#FAEDD4" stroke="#16555A" stroke-width="7.32312"/>
<path id="8_2" d="M1867.06 211.415C1857.7 211.415 1851.25 206.264 1851.25 198.566C1851.25 194.125 1853.56 190.276 1857.88 188.5V188.381C1854.21 186.723 1852.2 183.289 1852.2 179.322C1852.2 172.157 1858.41 167.243 1867.06 167.243C1875.7 167.243 1881.92 172.157 1881.92 179.322C1881.92 183.289 1879.91 186.723 1876.24 188.381V188.5C1880.56 190.276 1882.87 194.125 1882.87 198.566C1882.87 206.264 1876.41 211.415 1867.06 211.415ZM1867.06 185.48C1870.32 185.48 1872.86 183.289 1872.86 180.151C1872.86 177.072 1870.37 174.94 1867.06 174.94C1863.74 174.94 1861.26 177.072 1861.26 180.151C1861.26 183.289 1863.8 185.48 1867.06 185.48ZM1867.06 203.717C1870.97 203.717 1873.69 201.29 1873.69 197.915C1873.69 194.48 1870.91 192.053 1867.06 192.053C1863.21 192.053 1860.43 194.48 1860.43 197.915C1860.43 201.29 1863.15 203.717 1867.06 203.717Z" fill="#16555A"/>
</g>
<g id="4" opacity="0.5">
<circle id="Ellipse 9_8" cx="1273.04" cy="391.041" r="46.3798" fill="#FAEDD4" stroke="#16555A" stroke-width="7.32312"/>
<path id="4_2" d="M1274.72 411.764V401.342H1254.59V399.507L1274.72 368.894H1283.61V394.118H1291.42V401.342H1283.61V411.764H1274.72ZM1274.72 387.605C1274.72 385.355 1274.78 382.809 1274.84 380.559H1274.72C1273.54 382.572 1272 385 1270.58 387.191L1266.14 394L1266.2 394.118H1274.72V387.605Z" fill="#16555A"/>
</g>
</g>
</svg>
