<svg width="60" height="60" viewBox="0 0 60 60" fill="none" xmlns="http://www.w3.org/2000/svg">
<ellipse cx="30" cy="30" rx="30" ry="30" transform="rotate(-180 30 30)" fill="#1C373A"/>
<path d="M29.4795 25.2324H29.4746C29.4746 24.0504 29.4861 22.8971 29.4688 21.7451C29.4642 21.4267 29.4163 21.0969 29.3232 20.7949C28.9272 19.5146 27.7318 18.6533 26.4756 18.7129C25.1641 18.7754 24.02 19.6864 23.7773 20.9346C23.6614 21.5294 23.619 22.1493 23.6162 22.7578C23.6062 25.0881 23.6246 27.4197 23.6328 29.751V30.1289L23.6279 30.1387L23.627 30.1426C23.1786 29.9439 22.7949 29.7277 22.3857 29.6016C21.6508 29.3756 20.8486 29.4598 20.2393 29.8682C19.63 30.2765 19.213 31.0098 19.249 32.084C19.302 33.655 19.2491 35.2311 19.2637 36.8047C19.2719 37.6324 19.2458 38.4715 19.3691 39.2832C19.6848 41.359 20.4031 43.0817 21.5146 44.4512C22.6262 45.8206 24.1312 46.8375 26.0195 47.502C26.6051 47.7077 27.2295 47.7922 27.8369 47.9326H34.0615C34.2815 47.8864 34.5004 47.8306 34.7217 47.793C39.1937 47.0304 42.5926 42.8492 42.6074 38.0801C42.6147 35.9781 42.6129 33.8744 42.6074 31.7715C42.6046 30.7557 42.2016 29.9333 41.4287 29.3398C40.9309 28.9575 40.4153 28.762 39.8877 28.7305C39.36 28.699 38.8197 28.8317 38.2725 29.1045M29.4795 25.2324L29.4814 25.2363M29.4795 25.2324L29.4814 25.2363M29.4795 25.2324H29.4902L29.4814 25.2363M29.4814 25.2363C30.4333 24.8288 31.2642 24.7603 31.9746 25.0312C32.6851 25.3023 33.2763 25.9132 33.748 26.8662L33.752 26.8643M33.752 26.8643L33.7539 26.8682M33.752 26.8643L33.7539 26.8682M33.752 26.8643L33.8027 26.8398L33.7539 26.8682M33.7539 26.8682C34.7318 26.2838 35.7654 26.2873 36.6016 26.7139C37.4378 27.1407 38.0771 27.9916 38.2656 29.1016L38.2705 29.1006M38.2705 29.1006L38.2725 29.1045M38.2705 29.1006L38.2725 29.1045M38.2705 29.1006L38.2852 29.0977L38.2725 29.1045M27.001 20.3447C26.7342 20.237 26.4799 20.2191 26.2412 20.2773C26.0027 20.3356 25.7797 20.4697 25.5742 20.6641C25.2203 20.9985 25.0967 21.4415 25.0977 21.9326C25.0995 24.5643 25.0986 27.1964 25.0986 29.8281H25.1006L25.0967 29.835V37.8672C25.0966 38.1141 25.0251 38.3196 24.9023 38.4648C24.7795 38.6101 24.604 38.6954 24.3955 38.7012C24.1812 38.7068 24.0013 38.6352 23.8711 38.5C23.7408 38.3647 23.6595 38.1655 23.6426 37.917C23.6334 37.7851 23.6415 37.6529 23.6396 37.5195C23.6278 36.1258 23.6307 34.7318 23.5996 33.3389C23.5703 32.055 22.8209 31.1617 21.71 31.0332C21.3763 30.9946 21.128 31.0497 20.9639 31.2051C20.7998 31.3604 20.7208 31.615 20.7207 31.9717C20.7189 33.9424 20.687 35.9148 20.7363 37.8838C20.7574 38.7145 20.867 39.5672 21.0801 40.3662C21.98 43.7471 24.9646 46.2321 28.2959 46.3584C30.0607 46.4249 31.8293 46.3826 33.5957 46.3652C34.5404 46.3556 35.4524 46.1204 36.3037 45.6992C39.2752 44.2314 40.9506 41.7742 41.1162 38.3076C41.2195 36.1371 41.1468 33.9572 41.1514 31.7822C41.1514 31.6981 41.1388 31.614 41.127 31.5312C41.028 30.8097 40.4522 30.2733 39.7607 30.2568C39.0112 30.2395 38.3804 30.7294 38.2979 31.4775C38.2293 32.0952 38.2543 32.7239 38.2314 33.3467C38.216 33.7617 37.9234 34.0706 37.5439 34.0869C37.3471 34.095 37.174 34.0341 37.043 33.9189C36.9118 33.8034 36.8222 33.6324 36.7939 33.4219C36.7749 33.2807 36.7744 33.1356 36.7744 32.9912C36.7726 31.8613 36.7698 30.7324 36.7744 29.6025C36.7772 28.9455 36.5468 28.4255 35.9824 28.1152C35.4938 27.8466 34.9663 27.8974 34.5596 28.166C34.1529 28.4347 33.8662 28.9209 33.8584 29.5205C33.8429 30.7824 33.859 32.0448 33.8535 33.3066C33.8516 33.7505 33.562 34.0687 33.1709 34.0869C32.9679 34.0964 32.7907 34.0338 32.6582 33.9131C32.5256 33.7923 32.4375 33.6132 32.4111 33.3916C32.3956 33.2609 32.3955 33.1281 32.3955 32.9961C32.3946 31.4095 32.3954 29.8239 32.3936 28.2373C32.3936 28.0571 32.3882 27.8757 32.3672 27.6973C32.292 27.0538 31.782 26.5187 31.1758 26.4346C30.6986 26.3685 30.2752 26.5055 29.9707 26.79C29.6662 27.0747 29.4808 27.5066 29.4785 28.0273C29.4712 29.7815 29.4783 31.5369 29.4746 33.291C29.4737 33.7388 29.193 34.0609 28.8066 34.0859C28.5976 34.0994 28.4151 34.0356 28.2793 33.9111C28.1436 33.7866 28.0534 33.6008 28.0293 33.3701C28.0147 33.228 28.0166 33.0829 28.0166 32.9395C28.0166 29.3703 28.0165 25.8006 28.0146 22.2314C28.0147 22.016 28.0172 21.7961 27.9834 21.585C27.8854 20.9767 27.5404 20.564 27.001 20.3447Z" fill="#E8DEC7" stroke="#E8DEC7" stroke-width="0.0089078"/>
<path d="M18.5724 12.5724C18.3362 12.8085 18.3362 13.1915 18.5724 13.4276L22.4211 17.2764C22.6573 17.5126 23.0402 17.5126 23.2764 17.2764C23.5126 17.0402 23.5126 16.6573 23.2764 16.4211L19.8553 13L23.2764 9.57888C23.5126 9.3427 23.5126 8.95978 23.2764 8.7236C23.0402 8.48742 22.6573 8.48742 22.4211 8.7236L18.5724 12.5724ZM34.4276 13.4276C34.6638 13.1915 34.6638 12.8085 34.4276 12.5724L30.5789 8.7236C30.3427 8.48742 29.9598 8.48742 29.7236 8.7236C29.4874 8.95978 29.4874 9.3427 29.7236 9.57888L33.1447 13L29.7236 16.4211C29.4874 16.6573 29.4874 17.0402 29.7236 17.2764C29.9598 17.5126 30.3427 17.5126 30.5789 17.2764L34.4276 13.4276ZM19 13V13.6048H34V13V12.3952H19V13Z" fill="#E8DEC7"/>
</svg>
